<svg xmlns="http://www.w3.org/2000/svg" xmlns:xlink="http://www.w3.org/1999/xlink" width="80" height="80" viewBox="0 0 80 80"><g id="surface49963957"><path style="stroke:none;fill-rule:nonzero;fill:#e94560;fill-opacity:1" d="M 70 61.667969 C 70 66.269531 66.269531 70 61.667969 70 L 18.332031 70 C 13.730469 70 10 66.269531 10 61.667969 L 10 18.332031 C 10 13.730469 13.730469 10 18.332031 10 L 61.667969 10 C 66.269531 10 70 13.730469 70 18.332031 Z M 70 61.667969"/><path style="stroke:none;fill-rule:nonzero;fill:#fff;fill-opacity:1" d="M 55.050781 42.667969 C 53.964844 41.167969 52.398438 40.132812 50.382812 39.582031 C 50.382812 39.582031 52.082031 38.964844 53.617188 36.667969 C 54.535156 35.199219 55 33.433594 55 31.367188 C 55 27.785156 53.699219 25.035156 51.101562 23.148438 C 48.5 21.265625 45.566406 20 40.582031 20 L 25 20 L 25 60 L 42.382812 60 C 47.101562 59.964844 50.648438 58.949219 53.066406 57 C 55.464844 55.015625 56.667969 52.082031 56.667969 48.167969 C 56.667969 46 56.132812 44.167969 55.050781 42.667969 Z M 35 26.667969 C 35 26.667969 41.949219 26.667969 42.082031 26.667969 C 44.617188 26.667969 46.667969 28.714844 46.667969 31.25 C 46.667969 33.785156 44.617188 35.832031 42.082031 35.832031 C 41.949219 35.832031 35 35.832031 35 35.832031 Z M 43.332031 53.332031 L 35 53.332031 L 35 43.332031 L 43.332031 43.332031 C 46.101562 43.332031 48.332031 45.566406 48.332031 48.332031 C 48.332031 51.101562 46.101562 53.332031 43.332031 53.332031 Z M 43.332031 53.332031"/></g></svg>