<svg xmlns="http://www.w3.org/2000/svg" xmlns:xlink="http://www.w3.org/1999/xlink" width="80" height="80" viewBox="0 0 80 80"><g id="surface49980380"><path style="stroke:none;fill-rule:nonzero;fill:#e94560;fill-opacity:1" d="M 66.117188 6.667969 L 13.875 6.667969 C 11.808594 6.667969 10.195312 8.464844 10.425781 10.519531 L 16.40625 64.351562 C 16.5625 65.75 17.550781 66.917969 18.902344 67.304688 L 39.042969 73.058594 C 39.667969 73.234375 40.328125 73.234375 40.949219 73.058594 L 61.089844 67.304688 C 62.441406 66.917969 63.429688 65.75 63.585938 64.351562 L 69.566406 10.519531 C 69.796875 8.464844 68.1875 6.667969 66.117188 6.667969 Z M 53.15625 26.667969 L 30.730469 26.667969 L 31.398438 34.367188 L 51.65625 34.300781 C 51.660156 34.300781 51.664062 34.300781 51.667969 34.300781 C 52.597656 34.300781 53.484375 34.691406 54.113281 35.375 C 54.746094 36.058594 55.0625 36.980469 54.988281 37.910156 L 53.710938 53.273438 C 53.597656 54.660156 52.632812 55.828125 51.289062 56.207031 L 40.898438 59.128906 C 40.605469 59.210938 40.300781 59.253906 39.996094 59.253906 C 39.683594 59.253906 39.371094 59.210938 39.074219 59.125 L 28.769531 56.144531 C 27.457031 55.761719 26.511719 54.625 26.375 53.269531 L 26.113281 50.609375 C 25.929688 48.777344 27.269531 47.148438 29.101562 46.964844 C 30.902344 46.8125 32.566406 48.125 32.746094 49.949219 L 32.789062 50.363281 L 40.011719 52.449219 L 47.257812 50.414062 L 48.039062 40.972656 L 28.351562 41.035156 C 28.351562 41.035156 28.347656 41.035156 28.34375 41.035156 C 26.613281 41.035156 25.171875 39.714844 25.023438 37.992188 L 23.773438 23.625 C 23.691406 22.691406 24.003906 21.769531 24.636719 21.078125 C 25.269531 20.390625 26.160156 20 27.09375 20 L 53.15625 20 C 55 20 56.488281 21.492188 56.488281 23.332031 C 56.488281 25.171875 55 26.667969 53.15625 26.667969 Z M 53.15625 26.667969"/></g></svg>