<svg xmlns="http://www.w3.org/2000/svg" xmlns:xlink="http://www.w3.org/1999/xlink" width="80" height="80" viewBox="0 0 80 80"><g id="surface50296073"><path style="stroke:none;fill-rule:nonzero;fill:#5d4037;fill-opacity:1" d="M 70 28.832031 C 70 63 40 73.332031 40 73.332031 C 40 73.332031 10 63 10 28.832031 C 10 24.667969 10.332031 21.167969 10.667969 18.332031 C 11.167969 14.167969 14 10.832031 18 9.832031 C 23.167969 8.332031 31.332031 6.667969 40 6.667969 C 48.667969 6.667969 56.832031 8.332031 62.167969 9.832031 C 66.167969 10.832031 69 14.332031 69.5 18.332031 C 69.667969 21.167969 70 24.832031 70 28.832031 Z M 70 28.832031"/><path style="stroke:none;fill-rule:nonzero;fill:#e94560;fill-opacity:1" d="M 40 11.667969 C 48.167969 11.667969 55.832031 13.332031 60.832031 14.667969 C 62.832031 15.167969 64.167969 16.832031 64.5 19 C 64.832031 22.167969 65 25.5 65 28.832031 C 65 54.832031 45.832031 65.332031 40 67.832031 C 34.167969 65.167969 15 54.667969 15 28.832031 C 15 25.5 15.167969 22.167969 15.5 19 C 15.667969 16.832031 17.167969 15.167969 19.167969 14.667969 C 24.167969 13.332031 31.832031 11.667969 40 11.667969 M 40 6.667969 C 31.332031 6.667969 23.167969 8.332031 17.832031 9.832031 C 14 10.832031 11 14.332031 10.667969 18.332031 C 10.332031 21.167969 10 24.832031 10 28.832031 C 10 63 40 73.332031 40 73.332031 C 40 73.332031 70 63 70 28.832031 C 70 24.667969 69.667969 21.167969 69.332031 18.332031 C 68.832031 14.167969 66 10.832031 62 9.832031 C 56.832031 8.332031 48.667969 6.667969 40 6.667969 Z M 40 6.667969"/><path style="stroke:none;fill-rule:nonzero;fill:#ffb3ce;fill-opacity:1" d="M 38.332031 46.667969 L 41.667969 46.667969 L 41.667969 60 L 38.332031 60 Z M 38.332031 46.667969"/><path style="stroke:none;fill-rule:nonzero;fill:#e94560;fill-opacity:1" d="M 40 16.667969 C 40 16.667969 30 25 30 38.332031 C 30 47 35.5 52.5 38.332031 55 L 40 50 L 41.667969 55 C 44.5 52.5 50 47 50 38.332031 C 50 25 40 16.667969 40 16.667969 Z M 40 16.667969"/><path style="stroke:none;fill-rule:nonzero;fill:#ff6d88;fill-opacity:1" d="M 40 16.667969 C 40 16.667969 30 25 30 38.332031 C 30 47 35.5 52.5 38.332031 55 L 40 50 Z M 40 16.667969"/></g></svg>