<svg xmlns="http://www.w3.org/2000/svg" xmlns:xlink="http://www.w3.org/1999/xlink" width="80" height="80" viewBox="0 0 80 80"><g id="surface50303065"><path style="stroke:none;fill-rule:nonzero;fill:#e94560;fill-opacity:1" d="M 49.867188 12.800781 C 49.117188 12.78125 48.460938 13.070312 48.125 13.898438 C 47.550781 15.292969 48.980469 16.65625 49.492188 17.367188 C 49.851562 17.863281 50.3125 18.417969 50.570312 18.976562 C 50.738281 19.34375 50.761719 19.710938 50.90625 20.101562 C 51.261719 21.054688 51.832031 22.144531 52.289062 23.03125 C 52.519531 23.480469 52.773438 23.949219 53.070312 24.351562 C 53.25 24.59375 53.554688 24.707031 53.605469 25.082031 C 53.304688 25.507812 53.289062 26.164062 53.117188 26.699219 C 52.355469 29.105469 52.644531 32.101562 53.75 33.875 C 54.09375 34.425781 54.898438 35.59375 56 35.148438 C 56.960938 34.757812 56.75 33.539062 57.023438 32.457031 C 57.085938 32.21875 57.050781 32.039062 57.175781 31.875 L 57.175781 31.925781 C 57.460938 32.511719 57.757812 33.101562 58.050781 33.679688 C 58.707031 34.730469 59.863281 35.824219 60.835938 36.570312 C 61.34375 36.949219 61.742188 37.613281 62.398438 37.835938 L 62.398438 37.789062 L 62.351562 37.789062 C 62.226562 37.585938 62.023438 37.507812 61.863281 37.351562 C 61.480469 36.976562 61.054688 36.507812 60.742188 36.074219 C 59.851562 34.867188 59.0625 33.542969 58.351562 32.167969 C 58.007812 31.511719 57.707031 30.789062 57.417969 30.117188 C 57.304688 29.855469 57.304688 29.46875 57.074219 29.332031 C 56.757812 29.824219 56.292969 30.21875 56.050781 30.800781 C 55.664062 31.726562 55.605469 32.855469 55.460938 34.023438 C 55.375 34.054688 55.414062 34.03125 55.367188 34.074219 C 54.6875 33.90625 54.445312 33.207031 54.195312 32.605469 C 53.554688 31.085938 53.429688 28.636719 54 26.894531 C 54.144531 26.4375 54.800781 25.011719 54.539062 24.59375 C 54.414062 24.175781 53.988281 23.9375 53.757812 23.617188 C 53.460938 23.226562 53.175781 22.707031 52.976562 22.25 C 52.449219 21.0625 51.957031 19.6875 51.398438 18.488281 C 51.136719 17.914062 50.695312 17.335938 50.324219 16.824219 C 49.917969 16.261719 49.46875 15.851562 49.148438 15.164062 C 49.042969 14.925781 48.886719 14.539062 49.054688 14.289062 C 49.105469 14.117188 49.179688 14.050781 49.351562 13.992188 C 49.632812 13.773438 50.417969 14.0625 50.71875 14.1875 C 51.5 14.511719 52.15625 14.824219 52.820312 15.261719 C 53.136719 15.476562 53.457031 15.882812 53.84375 16 L 54.28125 16 C 54.976562 16.15625 55.742188 16.042969 56.382812 16.242188 C 57.519531 16.585938 58.539062 17.125 59.457031 17.707031 C 62.273438 19.480469 64.582031 22.011719 66.148438 25.03125 C 66.40625 25.519531 66.519531 25.988281 66.742188 26.5 C 67.1875 27.539062 67.757812 28.613281 68.207031 29.625 C 68.648438 30.644531 69.085938 31.664062 69.71875 32.507812 C 70.050781 32.949219 71.335938 33.195312 71.917969 33.4375 C 72.324219 33.613281 73 33.792969 73.382812 34.023438 C 74.125 34.46875 74.835938 35 75.53125 35.492188 C 75.882812 35.738281 76.945312 36.269531 77 36.710938 C 75.28125 36.667969 73.96875 36.824219 72.851562 37.300781 C 72.53125 37.4375 72.019531 37.4375 71.96875 37.835938 C 72.136719 38.019531 72.167969 38.292969 72.304688 38.519531 C 72.574219 38.949219 73.023438 39.53125 73.429688 39.835938 C 73.875 40.167969 74.324219 40.523438 74.800781 40.820312 C 75.636719 41.324219 76.574219 41.617188 77.386719 42.132812 C 77.863281 42.4375 78.34375 42.820312 78.804688 43.15625 C 79.039062 43.332031 79.1875 43.59375 79.488281 43.699219 L 79.488281 43.648438 C 79.332031 43.449219 79.292969 43.175781 79.148438 42.96875 L 78.507812 42.324219 C 77.886719 41.507812 77.101562 40.78125 76.261719 40.179688 C 75.59375 39.699219 74.101562 39.050781 73.824219 38.273438 L 73.773438 38.226562 C 74.242188 38.175781 74.800781 38 75.238281 37.882812 C 75.976562 37.6875 76.625 37.738281 77.382812 37.542969 C 77.726562 37.445312 78.070312 37.34375 78.414062 37.25 L 78.414062 37.050781 C 78.03125 36.664062 77.757812 36.136719 77.335938 35.78125 C 76.242188 34.851562 75.050781 33.917969 73.820312 33.144531 C 73.136719 32.710938 72.292969 32.429688 71.574219 32.070312 C 71.332031 31.945312 70.90625 31.882812 70.742188 31.675781 C 70.363281 31.195312 70.15625 30.582031 69.863281 30.019531 C 69.25 28.835938 68.648438 27.550781 68.105469 26.304688 C 67.738281 25.460938 67.492188 24.625 67.03125 23.863281 C 64.8125 20.21875 62.425781 18.011719 58.726562 15.851562 C 57.9375 15.386719 56.992188 15.210938 55.992188 14.976562 C 55.449219 14.9375 54.917969 14.90625 54.375 14.875 C 54.050781 14.738281 53.707031 14.335938 53.398438 14.136719 C 52.632812 13.65625 51.117188 12.820312 49.867188 12.800781 Z M 55.164062 18.101562 C 54.804688 18.09375 54.550781 18.144531 54.28125 18.199219 L 54.28125 18.25 L 54.332031 18.25 C 54.5 18.601562 54.804688 18.824219 55.019531 19.125 C 55.179688 19.46875 55.335938 19.8125 55.5 20.15625 L 55.550781 20.105469 C 55.851562 19.894531 55.992188 19.550781 55.992188 19.03125 C 55.867188 18.90625 55.851562 18.742188 55.75 18.59375 C 55.605469 18.386719 55.335938 18.273438 55.164062 18.101562 Z M 2.988281 38.394531 C 2.507812 38.414062 1.980469 38.507812 1.414062 38.6875 C 0.460938 38.976562 -0.0078125 39.542969 -0.0078125 40.699219 L -0.0078125 52.800781 L 3.199219 52.800781 L 3.199219 40.992188 L 7.644531 51.085938 C 8.195312 52.34375 8.945312 52.792969 10.414062 52.792969 C 11.886719 52.792969 12.605469 52.34375 13.15625 51.085938 L 17.601562 41.25 L 17.601562 52.800781 L 20.800781 52.800781 L 20.800781 40.699219 C 20.800781 39.542969 20.335938 38.976562 19.382812 38.6875 C 17.105469 37.96875 15.574219 38.585938 14.886719 40.144531 L 10.324219 50.40625 L 5.914062 40.144531 C 5.414062 38.976562 4.414062 38.335938 2.988281 38.394531 Z M 41.992188 38.398438 C 40.730469 38.398438 36.800781 38.550781 36.800781 41.601562 L 36.800781 43.574219 C 36.800781 44.976562 38.03125 46.117188 40.699219 46.398438 C 41 46.417969 41.300781 46.445312 41.601562 46.445312 C 41.601562 46.445312 44.710938 46.382812 44.800781 46.398438 C 46.601562 46.398438 46.398438 47.800781 46.398438 48 L 46.398438 49.601562 C 46.398438 49.820312 46.351562 51.199219 44.78125 51.199219 L 36.800781 51.199219 L 36.800781 52.800781 L 44.8125 52.800781 C 45.863281 52.800781 46.882812 52.582031 47.695312 52.199219 C 49.042969 51.582031 49.601562 50.742188 49.601562 49.644531 L 49.601562 47.355469 C 49.601562 44.898438 46.550781 44.800781 44.800781 44.800781 L 41.601562 44.800781 C 40.34375 44.800781 40.148438 44.039062 40 43.199219 L 40 41.601562 C 40.148438 40.960938 40.429688 40.101562 41.542969 40 L 49.601562 40 L 49.601562 38.398438 Z M 54.367188 38.398438 C 52.007812 38.726562 51.175781 39.898438 51.175781 41.601562 L 51.175781 49.601562 C 51.175781 51.15625 52.042969 52.09375 53.832031 52.582031 C 54.429688 52.75 54.976562 52.820312 55.488281 52.820312 L 59.050781 52.800781 L 61.144531 52.800781 L 62.925781 54.398438 L 66.523438 54.398438 L 64.050781 52.167969 C 65.210938 51.6875 65.574219 50.949219 65.574219 49.570312 L 65.574219 41.601562 C 65.574219 39.898438 64.46875 38.726562 62.105469 38.398438 Z M 67.199219 38.398438 L 67.199219 49.53125 C 67.199219 51.460938 68.292969 52.550781 71.1875 52.769531 C 71.457031 52.78125 71.730469 52.800781 72 52.800781 L 80 52.800781 L 80 51.199219 L 72.605469 51.199219 C 70.957031 51.199219 70.398438 50.507812 70.398438 49.519531 L 70.398438 38.398438 Z M 56.273438 40 L 60.394531 40 C 61.480469 40 62.210938 40.875 62.375 41.601562 C 62.375 41.601562 62.398438 49.050781 62.398438 49.601562 C 62.398438 50.148438 62.09375 50.398438 62.09375 50.398438 L 61.226562 49.601562 L 57.601562 49.601562 L 59.382812 51.199219 L 56.273438 51.199219 C 55.164062 51.199219 54.539062 50.375 54.375 49.601562 L 54.375 41.761719 C 54.375 40.914062 55.023438 40 56.273438 40 Z M 22.398438 43.199219 C 22.460938 43.261719 22.398438 50.019531 22.398438 50.148438 C 22.425781 51.550781 24.199219 52.773438 26.980469 52.800781 L 32 52.800781 L 32 52.90625 C 32 53.207031 32.21875 54.207031 30.398438 54.398438 C 30.382812 54.398438 22.417969 54.398438 22.398438 54.398438 L 22.398438 56 L 30.742188 56 C 32.15625 55.957031 35.21875 55.636719 35.199219 53.1875 C 35.199219 53.144531 35.210938 43.199219 35.199219 43.199219 L 32 43.199219 L 32 51.199219 C 31.949219 51.199219 28.039062 51.210938 27.25 51.199219 C 25.707031 51.175781 25.574219 50.292969 25.601562 49.957031 L 25.601562 43.199219 Z M 22.398438 43.199219"/></g></svg>