<svg xmlns="http://www.w3.org/2000/svg" width="40" height="40" fill="none" viewBox="0 0 40 40"><path fill="#E94560" d="M0 20C0 14.6957 2.10714 9.60859 5.85786 5.85786C9.60859 2.10714 14.6957 0 20 0C25.3043 0 30.3914 2.10714 34.1421 5.85786C37.8929 9.60859 40 14.6957 40 20C40 25.3043 37.8929 30.3914 34.1421 34.1421C30.3914 37.8929 25.3043 40 20 40C14.6957 40 9.60859 37.8929 5.85786 34.1421C2.10714 30.3914 0 25.3043 0 20ZM18.75 2.6925C17.075 3.2025 15.4125 4.7425 14.0325 7.33C13.5778 8.19024 13.1868 9.08263 12.8625 10H18.75V2.6925ZM10.225 10C10.6417 8.67204 11.1772 7.38434 11.825 6.1525C12.2573 5.33514 12.7565 4.55497 13.3175 3.82C10.22 5.10457 7.55502 7.24905 5.6375 10H10.225ZM8.77 18.75C8.845 16.5575 9.115 14.455 9.55 12.5H4.185C3.2528 14.4626 2.69653 16.5825 2.545 18.75H8.77ZM12.1175 12.5C11.6258 14.5495 11.3427 16.6435 11.2725 18.75H18.75V12.5H12.1175ZM21.25 12.5V18.75H28.725C28.6557 16.6436 28.3735 14.5496 27.8825 12.5H21.25ZM11.275 21.25C11.3444 23.3564 11.6266 25.4504 12.1175 27.5H18.75V21.25H11.275ZM21.25 21.25V27.5H27.8825C28.35 25.5875 28.6475 23.48 28.7275 21.25H21.25ZM12.8625 30C13.2075 30.965 13.6 31.86 14.0325 32.67C15.4125 35.2575 17.0775 36.795 18.75 37.3075V30H12.8625ZM13.3175 36.18C12.7564 35.4451 12.2572 34.6649 11.825 33.8475C11.1772 32.6157 10.6417 31.328 10.225 30H5.6375C7.55491 32.751 10.2199 34.8956 13.3175 36.18ZM9.55 27.5C9.09791 25.4452 8.8368 23.3529 8.77 21.25H2.545C2.7 23.475 3.2725 25.5825 4.185 27.5H9.55ZM26.6825 36.18C29.7801 34.8956 32.4451 32.751 34.3625 30H29.775C29.3583 31.3279 28.8228 32.6156 28.175 33.8475C27.7429 34.6649 27.2436 35.4451 26.6825 36.18ZM21.25 30V37.3075C22.925 36.7975 24.5875 35.2575 25.9675 32.67C26.4 31.86 26.7925 30.965 27.1375 30H21.25ZM30.45 27.5H35.815C36.7275 25.5825 37.3 23.475 37.455 21.25H31.23C31.1632 23.3529 30.9021 25.4452 30.45 27.5ZM37.455 18.75C37.3034 16.5825 36.7472 14.4626 35.815 12.5H30.45C30.885 14.455 31.155 16.5575 31.23 18.75H37.455ZM28.175 6.1525C28.7925 7.3125 29.33 8.6025 29.775 10H34.3625C32.4451 7.24896 29.7801 5.10445 26.6825 3.82C27.2275 4.53 27.7275 5.315 28.175 6.1525ZM27.1375 10C26.8132 9.08261 26.4222 8.19022 25.9675 7.33C24.5875 4.7425 22.925 3.205 21.25 2.6925V10H27.1375Z"/></svg>