<?xml version="1.0" encoding="UTF-8"?>
<svg xmlns="http://www.w3.org/2000/svg" xmlns:xlink="http://www.w3.org/1999/xlink" viewBox="0 0 80 80" width="80px" height="80px">
<g id="surface50301795">
<path style=" stroke:none;fill-rule:nonzero;fill:rgb(91.37255%,27.058825%,37.64706%);fill-opacity:1;" d="M 64 10.667969 L 16 10.667969 C 13.054688 10.667969 10.667969 13.054688 10.667969 16 L 10.667969 64 C 10.667969 66.945312 13.054688 69.332031 16 69.332031 L 64 69.332031 C 66.945312 69.332031 69.332031 66.945312 69.332031 64 L 69.332031 16 C 69.332031 13.054688 66.945312 10.667969 64 10.667969 Z M 40 54.347656 C 40 59.085938 37.09375 61.742188 32.265625 61.742188 C 27.5 61.742188 24.460938 58.953125 24.460938 54.449219 L 29.625 54.449219 C 29.640625 56.121094 30.636719 57.175781 32.179688 57.175781 C 33.761719 57.175781 34.613281 56.179688 34.613281 54.300781 L 34.613281 39.996094 L 40 39.996094 Z M 54.617188 61.742188 C 49.257812 61.742188 45.886719 59.21875 45.796875 55.136719 L 50.933594 55.136719 C 51.0625 56.679688 52.601562 57.660156 54.835938 57.660156 C 56.84375 57.660156 58.226562 56.691406 58.226562 55.296875 C 58.226562 54.125 57.300781 53.492188 54.878906 53.011719 L 52.09375 52.453125 C 48.21875 51.71875 46.222656 49.609375 46.222656 46.277344 C 46.222656 42.136719 49.542969 39.425781 54.644531 39.425781 C 59.605469 39.425781 63.039062 42.109375 63.125 46.027344 L 58.152344 46.027344 C 58.035156 44.53125 56.609375 43.488281 54.714844 43.488281 C 52.824219 43.488281 51.578125 44.382812 51.578125 45.792969 C 51.578125 46.953125 52.515625 47.625 54.746094 48.066406 L 57.472656 48.59375 C 61.65625 49.402344 63.535156 51.292969 63.535156 54.652344 C 63.535156 59.070312 60.164062 61.742188 54.617188 61.742188 Z M 54.617188 61.742188 "/>
</g>
</svg>
