<svg width="40" height="40" viewBox="0 0 40 40" fill="none" xmlns="http://www.w3.org/2000/svg">
<path d="M3.52332 30.7734C3.66477 31.0426 3.87707 31.2681 4.13731 31.4256C4.39754 31.583 4.69583 31.6664 4.99998 31.6667L35 31.6667C35.3036 31.6654 35.6011 31.5814 35.8605 31.4237C36.1199 31.2661 36.3315 31.0406 36.4724 30.7717C36.6133 30.5028 36.6782 30.2005 36.6601 29.8975C36.6421 29.5944 36.5418 29.302 36.37 29.0517L21.37 7.38502C21.2171 7.16295 21.0125 6.98138 20.7738 6.85594C20.5352 6.7305 20.2696 6.66496 20 6.66496C19.7304 6.66496 19.4648 6.7305 19.2261 6.85594C18.9875 6.98138 18.7829 7.16295 18.63 7.38502L3.62998 29.0517C3.45651 29.3015 3.35483 29.5941 3.33603 29.8976C3.31722 30.2012 3.382 30.5041 3.52332 30.7734ZM20 11.2617L31.82 28.3334L8.17999 28.3334L20 11.2617Z" fill="#E94560" fill-opacity="0.8"/>
</svg>
