<svg width="40" height="40" viewBox="0 0 40 40" fill="none" xmlns="http://www.w3.org/2000/svg">
<path d="M36.4767 9.22665C36.3352 8.95739 36.1229 8.73187 35.8627 8.57444C35.6025 8.41701 35.3042 8.33363 35 8.33331H5.00002C4.69642 8.33457 4.39891 8.41856 4.13948 8.57625C3.88006 8.73395 3.66852 8.95938 3.52763 9.2283C3.38674 9.49723 3.32183 9.79947 3.33987 10.1025C3.35791 10.4056 3.45822 10.698 3.63002 10.9483L18.63 32.615C18.7829 32.8371 18.9875 33.0186 19.2262 33.1441C19.4648 33.2695 19.7304 33.335 20 33.335C20.2696 33.335 20.5352 33.2695 20.7739 33.1441C21.0125 33.0186 21.2171 32.8371 21.37 32.615L36.37 10.9483C36.5435 10.6985 36.6452 10.4059 36.664 10.1024C36.6828 9.79884 36.618 9.49595 36.4767 9.22665ZM20 28.7383L8.18002 11.6666H31.82L20 28.7383Z" fill="white"/>
</svg>
