<svg xmlns="http://www.w3.org/2000/svg" xmlns:xlink="http://www.w3.org/1999/xlink" width="48" height="48" viewBox="0 0 48 48"><g id="surface51788974"><path style="stroke:none;fill-rule:nonzero;fill:#e94560;fill-opacity:1" d="M 39.902344 11.34375 C 36.097656 8.28125 30.070312 7.765625 29.816406 7.742188 C 29.414062 7.707031 29.03125 7.9375 28.867188 8.304688 C 28.855469 8.328125 28.722656 8.628906 28.578125 9.101562 C 31.097656 9.523438 34.191406 10.378906 36.988281 12.117188 C 37.4375 12.394531 37.574219 12.984375 37.296875 13.4375 C 37.117188 13.726562 36.804688 13.886719 36.484375 13.886719 C 36.3125 13.886719 36.136719 13.84375 35.980469 13.742188 C 31.167969 10.761719 25.15625 10.609375 24 10.609375 C 22.84375 10.609375 16.828125 10.761719 12.023438 13.742188 C 11.570312 14.023438 10.984375 13.882812 10.703125 13.4375 C 10.425781 12.984375 10.5625 12.398438 11.011719 12.117188 C 13.8125 10.382812 16.902344 9.523438 19.425781 9.101562 C 19.277344 8.628906 19.144531 8.328125 19.132812 8.304688 C 18.96875 7.9375 18.589844 7.703125 18.183594 7.742188 C 17.929688 7.765625 11.90625 8.28125 8.046875 11.386719 C 6.03125 13.25 2 24.144531 2 33.566406 C 2 33.730469 2.042969 33.894531 2.125 34.039062 C 4.90625 38.925781 12.496094 40.207031 14.226562 40.261719 C 14.234375 40.261719 14.246094 40.261719 14.257812 40.261719 C 14.5625 40.261719 14.851562 40.117188 15.03125 39.867188 L 16.78125 37.464844 C 12.0625 36.242188 9.652344 34.175781 9.511719 34.050781 C 9.117188 33.703125 9.078125 33.097656 9.429688 32.703125 C 9.777344 32.304688 10.378906 32.269531 10.777344 32.617188 C 10.835938 32.667969 15.273438 36.433594 24 36.433594 C 32.742188 36.433594 37.183594 32.652344 37.226562 32.613281 C 37.621094 32.269531 38.226562 32.304688 38.574219 32.703125 C 38.921875 33.101562 38.882812 33.703125 38.488281 34.050781 C 38.351562 34.175781 35.941406 36.242188 31.222656 37.460938 L 32.972656 39.867188 C 33.152344 40.113281 33.441406 40.261719 33.746094 40.261719 C 33.757812 40.261719 33.765625 40.261719 33.777344 40.261719 C 35.507812 40.207031 43.09375 38.925781 45.875 34.039062 C 45.957031 33.894531 46 33.730469 46 33.566406 C 46 24.144531 41.96875 13.25 39.902344 11.34375 Z M 17.78125 29.738281 C 15.933594 29.738281 14.433594 28.027344 14.433594 25.914062 C 14.433594 23.800781 15.933594 22.089844 17.78125 22.089844 C 19.632812 22.089844 21.128906 23.800781 21.128906 25.914062 C 21.128906 28.027344 19.632812 29.738281 17.78125 29.738281 Z M 30.21875 29.738281 C 28.371094 29.738281 26.871094 28.027344 26.871094 25.914062 C 26.871094 23.800781 28.367188 22.089844 30.21875 22.089844 C 32.066406 22.089844 33.566406 23.800781 33.566406 25.914062 C 33.566406 28.027344 32.066406 29.738281 30.21875 29.738281 Z M 30.21875 29.738281"/></g></svg>